<svg xmlns="http://www.w3.org/2000/svg" width="357.103" height="81.716" viewBox="0 0 357.103 81.716">
  <g id="Group_54" data-name="Group 54" transform="translate(-121 -34)">
    <g id="RVB-Logo_Alt_1" data-name="RVB-Logo Alt 1" transform="translate(120.3 33)">
      <g id="Group_33" data-name="Group 33" transform="translate(0.7 1)">
        <path id="Path_28" data-name="Path 28" d="M27.939,1C27.939,17.826.7,36.735.7,55.394A27.183,27.183,0,0,0,12.279,77.635c0-16.826,27.239-35.735,27.239-54.394A27.626,27.626,0,0,0,27.939,1Z" transform="translate(-0.7 -1)" fill="#0b4580"/>
        <path id="Path_29" data-name="Path 29" d="M52.956,38.6C49.124,55.676,26.3,72.919,26.3,88.329A27.1,27.1,0,0,0,59.37,61.674C59.37,55.426,56.871,47.1,52.956,38.6Z" transform="translate(-4.975 -7.28)" fill="#ff6200"/>
      </g>
      <g id="Group_34" data-name="Group 34" transform="translate(67.256 25.74)">
        <path id="Path_30" data-name="Path 30" d="M81.883,34.8H87.8a6.323,6.323,0,0,1,4.581,1.5,4.839,4.839,0,0,1,1.333,3.582v.083a4.752,4.752,0,0,1-2.666,4.5l3.082,5.5H89.713L87.131,45.3H85.715V49.96H81.8V34.8Zm5.748,7.33a1.864,1.864,0,0,0,2.082-2v-.083c0-1.333-.833-1.916-2.082-1.916H85.715v4Z" transform="translate(-80.8 -31.385)" fill="#0b4580"/>
        <path id="Path_31" data-name="Path 31" d="M101.8,34.7a2.326,2.326,0,0,1-.5-1.5,2.621,2.621,0,0,1,2.749-2.5,2.569,2.569,0,0,1,2.749,2.5,2.326,2.326,0,0,1-.5,1.5l5.081,14.577H107.3l-.916-2.749h-4.748l-.833,2.749h-4Zm3.582,8.746-1.416-4.415-1.416,4.415Zm0-10.162a1.275,1.275,0,0,0-1.416-1.249,1.249,1.249,0,0,0-1.333,1.249,1.3,1.3,0,0,0,1.333,1.249A1.324,1.324,0,0,0,105.38,33.282Z" transform="translate(-83.306 -30.7)" fill="#0b4580"/>
        <path id="Path_32" data-name="Path 32" d="M115.6,34.8h5c4.915,0,7.664,2.915,7.664,7.414v.25c0,4.5-2.832,7.5-7.747,7.5H115.6Zm3.915,3.5v8.163h1.166c2.166,0,3.582-1.249,3.582-4V42.3c0-2.749-1.416-4-3.582-4Z" transform="translate(-86.445 -31.385)" fill="#0b4580"/>
        <path id="Path_33" data-name="Path 33" d="M133,34.8h10.412v3.415h-6.581v2.5h5.914v3.249h-5.914v2.582H143.5V49.96H133Z" transform="translate(-89.351 -31.385)" fill="#0b4580"/>
        <path id="Path_34" data-name="Path 34" d="M150.748,38.3H147V34.8h11.412v3.5h-3.748V49.96h-3.915Z" transform="translate(-91.689 -31.385)" fill="#0b4580"/>
        <path id="Path_35" data-name="Path 35" d="M168.7,34.8h10.329v3.5h-6.414v2.666h5.748V44.3h-5.748V49.96H168.7Z" transform="translate(-95.314 -31.385)" fill="#0b4580"/>
        <path id="Path_36" data-name="Path 36" d="M182.4,42.48v-.333c0-4.5,3-7.747,7.08-7.747s7,3.165,7,7.664V42.4c0,4.5-3,7.747-7.08,7.747C185.4,50.143,182.4,47.061,182.4,42.48Zm10.079,0v-.25c0-2.582-1.249-4.248-3.082-4.248s-3,1.583-3,4.165v.25c0,2.582,1.249,4.248,3.082,4.248S192.479,45.062,192.479,42.48Z" transform="translate(-97.602 -31.318)" fill="#0b4580"/>
        <path id="Path_37" data-name="Path 37" d="M201.5,34.8h6a6.323,6.323,0,0,1,4.581,1.5,4.839,4.839,0,0,1,1.333,3.582v.083a4.752,4.752,0,0,1-2.666,4.5l3.082,5.5h-4.415L206.831,45.3h-1.416V49.96H201.5Zm5.831,7.33a1.864,1.864,0,0,0,2.082-2v-.083c0-1.333-.833-1.916-2.082-1.916h-1.916v4Z" transform="translate(-100.792 -31.385)" fill="#0b4580"/>
        <path id="Path_38" data-name="Path 38" d="M222.7,34.8h4.248l2.832,9.413,2.749-9.413h4.165l-5.081,15.244h-3.748Z" transform="translate(-104.332 -31.385)" fill="#0b4580"/>
        <path id="Path_39" data-name="Path 39" d="M241,34.8h10.412v3.415h-6.581v2.5h5.914v3.249h-5.914v2.582H251.5V49.96H241Z" transform="translate(-107.388 -31.385)" fill="#0b4580"/>
        <path id="Path_40" data-name="Path 40" d="M255.8,34.8h5c4.915,0,7.663,2.915,7.663,7.414v.25c0,4.5-2.832,7.5-7.747,7.5H255.8Zm3.915,3.5v8.163h1.166c2.166,0,3.582-1.249,3.582-4V42.3c0-2.749-1.416-4-3.582-4Z" transform="translate(-109.86 -31.385)" fill="#0b4580"/>
        <path id="Path_41" data-name="Path 41" d="M273.1,34.8h3.915V46.462h6v3.5h-9.829V34.8Z" transform="translate(-112.75 -31.385)" fill="#0b4580"/>
        <path id="Path_42" data-name="Path 42" d="M286.9,34.8h3.915V49.96H286.9Z" transform="translate(-115.054 -31.385)" fill="#0b4580"/>
        <path id="Path_43" data-name="Path 43" d="M294.383,34.8H298.3v6l4.165-6h4.5L302.3,41.214l4.831,8.746h-4.581l-3.082-5.5-1.249,1.583V49.96H294.3V34.8Z" transform="translate(-116.29 -31.385)" fill="#0b4580"/>
        <path id="Path_44" data-name="Path 44" d="M310.9,34.8h10.412v3.415h-6.581v2.5h5.914v3.249h-5.914v2.582H321.4V49.96H310.9Z" transform="translate(-119.062 -31.385)" fill="#0b4580"/>
        <path id="Path_45" data-name="Path 45" d="M325.7,34.8h3.915v5.748h4.332V34.8h3.915V49.96h-3.915V44.129h-4.332V49.96H325.7Z" transform="translate(-121.534 -31.385)" fill="#0b4580"/>
        <path id="Path_46" data-name="Path 46" d="M342.4,42.48v-.333c0-4.5,3-7.747,7.08-7.747s7,3.165,7,7.664V42.4c0,4.5-3,7.747-7.08,7.747C345.4,50.143,342.4,47.061,342.4,42.48Zm10.079,0v-.25c0-2.582-1.249-4.248-3.082-4.248s-3,1.583-3,4.165v.25c0,2.582,1.249,4.248,3.082,4.248S352.479,45.062,352.479,42.48Z" transform="translate(-124.323 -31.318)" fill="#0b4580"/>
        <path id="Path_47" data-name="Path 47" d="M361.5,34.8h3.915V46.462h6v3.5h-9.829V34.8Z" transform="translate(-127.513 -31.385)" fill="#0b4580"/>
        <path id="Path_48" data-name="Path 48" d="M375.2,34.8h5c4.915,0,7.664,2.915,7.664,7.414v.25c0,4.5-2.832,7.5-7.747,7.5H375.2Zm3.915,3.5v8.163h1.166c2.166,0,3.582-1.249,3.582-4V42.3c0-2.749-1.416-4-3.582-4Z" transform="translate(-129.801 -31.385)" fill="#0b4580"/>
        <path id="Path_49" data-name="Path 49" d="M85.931,65.9h3.915l5.331,15.244H91.1l-.916-2.749H85.431L84.6,81.144h-4Zm3.332,9.413L87.847,70.9l-1.416,4.415Z" transform="translate(-80.6 -36.579)" fill="#0b4580"/>
        <path id="Path_50" data-name="Path 50" d="M96.3,66h4.248l2.832,9.413L106.129,66h4.165l-5.081,15.244h-3.748Z" transform="translate(-83.222 -36.595)" fill="#0b4580"/>
        <path id="Path_51" data-name="Path 51" d="M120.683,66h6.247a5.359,5.359,0,0,1,4.082,1.333,3.143,3.143,0,0,1,1,2.5v.083a3.5,3.5,0,0,1-2.249,3.332,3.52,3.52,0,0,1,2.749,3.582v.083c0,2.582-2,4.165-5.581,4.165H120.6V66Zm7.58,4.665c0-.916-.666-1.416-1.833-1.416h-1.916v2.832h1.833c1.166,0,1.916-.5,1.916-1.416Zm-1.5,4.248h-2.249v3h2.332c1.249,0,1.916-.5,1.916-1.5h0C128.68,75.5,128.014,74.913,126.764,74.913Z" transform="translate(-87.28 -36.595)" fill="#0b4580"/>
        <path id="Path_52" data-name="Path 52" d="M136.883,66H142.8a6.323,6.323,0,0,1,4.581,1.5,4.839,4.839,0,0,1,1.333,3.582v.083a4.752,4.752,0,0,1-2.666,4.5l3.082,5.5h-4.415L142.131,76.5h-1.416V81.16H136.8V66Zm5.831,7.33a1.864,1.864,0,0,0,2.082-2v-.083c0-1.333-.833-1.916-2.082-1.916H140.8v4Z" transform="translate(-89.986 -36.595)" fill="#0b4580"/>
        <path id="Path_53" data-name="Path 53" d="M157.031,65.9h3.915l5.331,15.244H162.2l-.916-2.749h-4.748l-.833,2.749h-4Zm3.332,9.413L158.947,70.9l-1.416,4.415Z" transform="translate(-92.474 -36.579)" fill="#0b4580"/>
        <path id="Path_54" data-name="Path 54" d="M170.7,66h3.665l5.081,7.663V66h3.832V81.16h-3.5l-5.248-7.913V81.16H170.7Z" transform="translate(-95.648 -36.595)" fill="#0b4580"/>
        <path id="Path_55" data-name="Path 55" d="M188.4,66h3.665l5.081,7.663V66h3.832V81.16h-3.5l-5.248-7.913V81.16H188.4Z" transform="translate(-98.604 -36.595)" fill="#0b4580"/>
        <path id="Path_56" data-name="Path 56" d="M204.9,79.145l2.082-2.832a6.852,6.852,0,0,0,4.082,1.749c1,0,1.583-.416,1.583-1.083h0c0-.583-.417-1-2.249-1.583-2.832-1-4.915-2-4.915-4.748v-.083c0-2.749,2.082-4.665,5.414-4.665a8.516,8.516,0,0,1,5.414,1.833l-2,2.915a5.84,5.84,0,0,0-3.5-1.416c-.916,0-1.416.416-1.416,1h0c0,.666.5,1,2.416,1.749,2.915.916,4.665,2.082,4.665,4.665v.083c0,2.915-2.249,4.748-5.5,4.748A9.884,9.884,0,0,1,204.9,79.145Z" transform="translate(-101.359 -36.579)" fill="#0b4580"/>
        <path id="Path_57" data-name="Path 57" d="M220.9,66h3.915V77.662h6v3.5h-9.829V66Z" transform="translate(-104.032 -36.595)" fill="#0b4580"/>
        <path id="Path_58" data-name="Path 58" d="M233.1,73.68v-.333c0-4.5,3-7.747,7.08-7.747s7,3.165,7,7.664V73.6c0,4.5-3,7.747-7.08,7.747S233.1,78.261,233.1,73.68Zm10.079,0v-.25c0-2.582-1.25-4.248-3.082-4.248s-3,1.583-3,4.165v.25c0,2.582,1.25,4.248,3.082,4.248C241.93,77.845,243.179,76.262,243.179,73.68Z" transform="translate(-106.069 -36.529)" fill="#0b4580"/>
        <path id="Path_59" data-name="Path 59" d="M252.183,66H256.1v6l4.165-6h4.5L260.1,72.414l4.831,8.746h-4.581l-3.082-5.5-1.249,1.583V81.16H252.1V66Z" transform="translate(-109.242 -36.595)" fill="#0b4580"/>
        <path id="Path_60" data-name="Path 60" d="M268.683,66H272.6v6l4.165-6h4.5L276.6,72.414l4.831,8.746h-4.581l-3.082-5.5-1.249,1.583V81.16H268.6V66Z" transform="translate(-111.998 -36.595)" fill="#0b4580"/>
        <path id="Path_61" data-name="Path 61" d="M285.2,66h10.412v3.415h-6.581v2.5h5.914v3.249h-5.914v2.582H295.7V81.16H285.2Z" transform="translate(-114.77 -36.595)" fill="#0b4580"/>
        <path id="Path_62" data-name="Path 62" d="M300.083,66h4l3.082,5.581L310.246,66h4V81.16h-3.832v-8.5l-3.249,5.664h-.083l-3.249-5.581v8.5H300V66Z" transform="translate(-117.242 -36.595)" fill="#0b4580"/>
        <path id="Path_63" data-name="Path 63" d="M323.831,65.9h3.915l5.331,15.244H329l-.916-2.749h-4.748l-.833,2.749h-4Zm3.332,9.413L325.747,70.9l-1.416,4.415Z" transform="translate(-120.332 -36.579)" fill="#0b4580"/>
        <path id="Path_64" data-name="Path 64" d="M338.448,69.5H334.7V66h11.412v3.5h-3.748V81.16h-3.915Z" transform="translate(-123.037 -36.595)" fill="#0b4580"/>
        <path id="Path_65" data-name="Path 65" d="M350.3,66h10.412v3.415h-6.581v2.5h5.914v3.249h-5.914v2.582H360.8V81.16H350.3Z" transform="translate(-125.643 -36.595)" fill="#0b4580"/>
        <path id="Path_66" data-name="Path 66" d="M365.083,66H371a6.323,6.323,0,0,1,4.581,1.5,4.839,4.839,0,0,1,1.333,3.582v.083a4.752,4.752,0,0,1-2.666,4.5l3.082,5.5h-4.415L370.331,76.5h-1.416V81.16H365V66Zm5.831,7.33a1.864,1.864,0,0,0,2.083-2v-.083c0-1.333-.833-1.916-2.083-1.916H369v4Z" transform="translate(-128.098 -36.595)" fill="#0b4580"/>
        <path id="Path_67" data-name="Path 67" d="M381.5,66h3.915V81.16H381.5Z" transform="translate(-130.853 -36.595)" fill="#0b4580"/>
        <path id="Path_68" data-name="Path 68" d="M389,66h10.412v3.415h-6.581v2.5h5.914v3.249h-5.914v2.582H399.5V81.16H389Z" transform="translate(-132.106 -36.595)" fill="#0b4580"/>
        <path id="Path_69" data-name="Path 69" d="M403.8,66h3.915V77.662h6v3.5h-9.829V66Z" transform="translate(-134.578 -36.595)" fill="#0b4580"/>
        <path id="Path_70" data-name="Path 70" d="M417.5,66h3.915V77.662h6v3.5h-9.829V66Z" transform="translate(-136.866 -36.595)" fill="#0b4580"/>
      </g>
    </g>
  </g>
</svg>
